HIERARCHY
ROOT Hips
{
	OFFSET 0.00000 0.00000 0.00000
	CHANNELS 6 Xposition Yposition Zposition Zrotation Yrotation Xrotation 
	JOINT LHipJoint
	{
		OFFSET 0 0 0
		CHANNELS 3 Zrotation Yrotation Xrotation
		JOINT LeftUpLeg
		{
			OFFSET 1.60223 -1.58443 0.78595
			CHANNELS 3 Zrotation Yrotation Xrotation
			JOINT LeftLeg
			{
				OFFSET 2.21690 -6.09089 0.00000
				CHANNELS 3 Zrotation Yrotation Xrotation
				JOINT LeftFoot
				{
					OFFSET 2.34805 -6.45122 0.00000
					CHANNELS 3 Zrotation Yrotation Xrotation
					JOINT LeftToeBase
					{
						OFFSET 0.35452 -0.97402 1.38549
						CHANNELS 3 Zrotation Yrotation Xrotation
						End Site
						{
							OFFSET 0.00000 -0.00000 0.82816
						}
					}
				}
			}
		}
	}
	JOINT RHipJoint
	{
		OFFSET 0 0 0
		CHANNELS 3 Zrotation Yrotation Xrotation
		JOINT RightUpLeg
		{
			OFFSET -1.56524 -1.58443 0.78595
			CHANNELS 3 Zrotation Yrotation Xrotation
			JOINT RightLeg
			{
				OFFSET -2.15558 -5.92241 0.00000
				CHANNELS 3 Zrotation Yrotation Xrotation
				JOINT RightFoot
				{
					OFFSET -2.35077 -6.45870 0.00000
					CHANNELS 3 Zrotation Yrotation Xrotation
					JOINT RightToeBase
					{
						OFFSET -0.26910 -0.73935 1.33295
						CHANNELS 3 Zrotation Yrotation Xrotation
						End Site
						{
							OFFSET -0.00000 -0.00000 0.75962
						}
					}
				}
			}
		}
	}
	JOINT LowerBack
	{
		OFFSET 0 0 0
		CHANNELS 3 Zrotation Yrotation Xrotation
		JOINT Spine
		{
			OFFSET -0.05489 1.97104 -0.02993
			CHANNELS 3 Zrotation Yrotation Xrotation
			JOINT Spine1
			{
				OFFSET -0.00702 1.94230 0.13626
				CHANNELS 3 Zrotation Yrotation Xrotation
				JOINT Neck
				{
					OFFSET 0 0 0
					CHANNELS 3 Zrotation Yrotation Xrotation
					JOINT Neck1
					{
						OFFSET -0.07858 1.62869 -0.02510
						CHANNELS 3 Zrotation Yrotation Xrotation
						JOINT Head
						{
							OFFSET 0.13978 1.59213 -0.29859
							CHANNELS 3 Zrotation Yrotation Xrotation
							End Site
							{
								OFFSET 0.05353 1.64420 -0.10000
							}
						}
					}
				}
				JOINT LeftShoulder
				{
					OFFSET 0 0 0
					CHANNELS 3 Zrotation Yrotation Xrotation
					JOINT LeftArm
					{
						OFFSET 3.48263 1.15278 0.52941
						CHANNELS 3 Zrotation Yrotation Xrotation
						JOINT LeftForeArm
						{
							OFFSET 4.59207 -0.00000 -0.00000
							CHANNELS 3 Zrotation Yrotation Xrotation
							JOINT LeftHand
							{
								OFFSET 2.98109 -0.00000 -0.00000
								CHANNELS 3 Zrotation Yrotation Xrotation
								JOINT LeftFingerBase
								{
									OFFSET 0 0 0
									CHANNELS 3 Zrotation Yrotation Xrotation
									JOINT LeftHandIndex1
									{
										OFFSET 0.48020 -0.00000 -0.00000
										CHANNELS 3 Zrotation Yrotation Xrotation
										End Site
										{
											OFFSET 0.38715 -0.00000 -0.00000
										}
									}
								}
								JOINT LThumb
								{
									OFFSET 0 0 0
									CHANNELS 3 Zrotation Yrotation Xrotation
									End Site
									{
										OFFSET 0.39306 -0.00000 0.39306
									}
								}
							}
						}
					}
				}
				JOINT RightShoulder
				{
					OFFSET 0 0 0
					CHANNELS 3 Zrotation Yrotation Xrotation
					JOINT RightArm
					{
						OFFSET -3.52496 1.12722 0.24548
						CHANNELS 3 Zrotation Yrotation Xrotation
						JOINT RightForeArm
						{
							OFFSET -4.76508 -0.00000 -0.00000
							CHANNELS 3 Zrotation Yrotation Xrotation
							JOINT RightHand
							{
								OFFSET -2.78902 -0.00000 -0.00000
								CHANNELS 3 Zrotation Yrotation Xrotation
								JOINT RightFingerBase
								{
									OFFSET 0 0 0
									CHANNELS 3 Zrotation Yrotation Xrotation
									JOINT RightHandIndex1
									{
										OFFSET -0.72130 -0.00000 -0.00000
										CHANNELS 3 Zrotation Yrotation Xrotation
										End Site
										{
											OFFSET -0.58153 -0.00000 -0.00000
										}
									}
								}
								JOINT RThumb
								{
									OFFSET 0 0 0
									CHANNELS 3 Zrotation Yrotation Xrotation
									End Site
									{
										OFFSET -0.59041 -0.00000 0.59041
									}
								}
							}
						}
					}
				}
			}
		}
	}
}
MOTION
Frames: 7
Frame Time: .0083333
22.4214 16.0402 -2.8371 144.9420 -448.5720 -140.7700 0.0000 0.0000 0.0000 -28.3884 -0.3687 -14.4728 5.0037 13.3879 40.8386 0.7586 -2.5661 -15.7849 2.5452 -9.9197 -28.7170 0.0000 0.0000 0.0000 18.3597 7.6700 -30.2910 -5.9888 -14.4175 44.9369 -0.9618 4.6459 -17.5602 -1.0591 6.5432 -18.3689 -8.7872 2.2749 15.8799 1.9261 1.3785 -5.5887 6.8198 1.6405 -15.7379 -9.7097 -0.6485 2.5864 7.1649 -1.5394 8.4652 3.7315 -0.9502 2.2066 -0.0000 -0.0000 0.0000 -19.1193 -31.6621 -42.0752 56.4272 -55.2802 -31.3858 -0.0000 -0.0000 35.7295 3.3117 44.4419 2.3201 -7.1250 0.0000 -0.0000 -49.4220 68.3699 -30.3895 -0.0000 -0.0000 0.0000 90.4221 -11.2042 30.7972 -50.8162 53.3194 -26.8273 0.0000 -0.0000 -11.9024 10.4926 56.8513 8.8143 7.1250 -0.0000 -0.0000 23.4584 23.6199 32.9248
22.4206 16.0280 -2.8467 115.4050 -447.8690 -111.8470 0.0000 0.0000 0.0000 -29.5272 0.3316 -13.5265 4.8246 13.1835 40.0592 0.7349 -2.9081 -15.4706 2.5053 -9.8476 -28.4845 0.0000 0.0000 0.0000 17.2022 7.7101 -29.4613 -5.8079 -14.2396 44.2059 -1.0483 4.4994 -18.3729 -0.8797 5.9793 -16.7245 -9.1436 2.2704 16.2906 1.2945 1.1896 -5.0230 6.3401 1.5004 -15.2575 -10.5093 -0.8925 2.4064 8.0608 -1.8793 7.9812 4.1319 -1.1079 2.1325 0.0000 0.0000 0.0000 -18.3899 -33.8317 -42.2193 55.2699 -54.9118 -30.4367 -0.0000 -0.0000 34.6068 6.0274 43.1893 4.1333 -7.1250 0.0000 -0.0000 -44.4656 68.4090 -26.9126 0.0000 0.0000 0.0000 91.1061 -10.3340 32.0395 -51.7384 53.6730 -27.5687 0.0000 -0.0000 -11.6376 11.5450 56.8325 9.7032 7.1250 -0.0000 -0.0000 23.8412 23.5739 33.5291
22.4141 16.0130 -2.8560 106.5380 -446.9050 -103.3910 0.0000 0.0000 0.0000 -30.5170 1.4006 -12.9616 4.6621 12.9929 39.3420 0.7060 -3.4793 -15.0757 2.5045 -9.8461 -28.4799 0.0000 0.0000 0.0000 16.0420 8.1326 -28.7393 -5.6464 -14.0767 43.5454 -1.0698 5.1778 -18.5099 -0.6428 5.1289 -14.2767 -9.0298 2.2441 16.8475 0.2989 0.9857 -4.7782 5.1813 1.3138 -15.2316 -10.8772 -1.1392 2.1636 9.0469 -2.2525 7.9795 4.4907 -1.2766 2.2152 0.0000 0.0000 0.0000 -17.3935 -36.1821 -42.1551 53.9389 -54.4656 -29.3505 -0.0000 -0.0000 33.4273 8.2562 41.7205 5.5157 -7.1250 0.0000 -0.0000 -39.6159 68.0651 -23.3211 0.0000 0.0000 0.0000 92.4424 -10.0658 33.3096 -53.0050 54.1379 -28.5922 0.0000 -0.0000 -11.1171 12.4322 56.6566 10.4349 7.1250 -0.0000 -0.0000 24.1538 23.3902 33.9998
22.4021 15.9903 -2.8676 98.6036 -445.8290 -95.5985 0.0000 0.0000 0.0000 -31.5407 2.3136 -12.6993 4.5306 12.8349 38.7536 0.6732 -4.1546 -14.6502 2.5796 -9.9811 -28.9157 0.0000 0.0000 0.0000 14.7673 8.4722 -28.3276 -5.5102 -13.9363 42.9827 -1.0097 6.0610 -17.9338 -0.3031 3.5397 -9.7850 -9.1705 2.0931 16.9645 -0.6071 0.6118 -4.4921 4.3348 1.0658 -14.8830 -11.2618 -1.3923 1.6544 9.7938 -2.6049 8.1980 4.7773 -1.4345 2.4088 0.0000 -0.0000 0.0000 -16.9496 -37.5853 -40.7890 52.3609 -53.9044 -28.0709 -0.0000 -0.0000 30.3464 11.1034 40.8002 7.3075 -7.1250 0.0000 -0.0000 -35.1131 68.2534 -20.5503 0.0000 -0.0000 0.0000 93.1907 -9.3610 35.3786 -53.4065 54.2803 -28.9178 0.0000 -0.0000 -11.0603 11.9877 56.7818 10.0727 7.1250 -0.0000 -0.0000 23.9993 23.5164 33.7730
22.3831 15.9599 -2.8833 95.7938 -444.6080 -92.7798 0.0000 0.0000 0.0000 -32.6040 3.4070 -12.7453 4.4398 12.7237 38.3427 0.6496 -5.1308 -14.3534 2.6648 -10.1315 -29.4036 0.0000 0.0000 0.0000 13.4996 8.7245 -28.0652 -5.3881 -13.8079 42.4734 -0.8921 6.7822 -16.8582 -0.0508 1.4542 -3.9995 -9.4548 1.9648 16.9105 -1.5759 0.2361 -4.2965 3.5053 0.8292 -14.5595 -11.6686 -1.6181 1.1844 10.6359 -2.9505 8.5908 5.0989 -1.5893 2.6517 0.0000 0.0000 0.0000 -16.5559 -39.1226 -39.6457 50.5622 -53.2197 -26.6238 -0.0000 -0.0000 26.7939 12.1099 39.8067 7.8213 -7.1250 0.0000 -0.0000 -32.4556 67.7747 -18.5223 0.0000 0.0000 0.0000 93.6064 -8.3880 38.1216 -53.0447 54.1520 -28.6243 0.0000 -0.0000 -11.2379 10.8558 57.0548 9.1423 7.1250 -0.0000 -0.0000 23.6057 23.8008 33.1907
22.3566 15.9272 -2.8948 92.7556 -443.5160 -89.4894 0.0000 0.0000 0.0000 -33.5219 4.3065 -13.0625 4.3914 12.6637 38.1224 0.6142 -6.3468 -14.0070 2.6631 -10.1287 -29.3945 0.0000 0.0000 0.0000 12.4380 8.7058 -27.9462 -5.2634 -13.6744 41.9485 -0.7711 7.2007 -15.7172 -0.0326 -1.1652 3.2034 -9.9212 1.8309 16.0478 -2.2682 -0.0161 -3.8503 3.0760 0.6466 -13.4803 -12.1501 -1.9494 0.7864 11.2744 -3.4011 8.6471 5.3648 -1.7981 2.8012 0.0000 -0.0000 0.0000 -16.4334 -41.2785 -39.3454 48.5295 -52.3849 -25.0045 -0.0000 -0.0000 23.3287 10.9367 38.7430 6.8954 -7.1250 0.0000 -0.0000 -32.1459 66.5582 -17.4575 0.0000 -0.0000 0.0000 93.3978 -6.7595 40.8928 -52.8518 54.0829 -28.4680 0.0000 -0.0000 -11.3816 10.5547 57.0097 8.8826 7.1250 -0.0000 -0.0000 23.4927 23.7673 33.0046
22.3239 15.9037 -2.9055 89.0894 -442.6960 -85.3298 0.0000 0.0000 0.0000 -34.1613 4.8192 -13.6058 4.3839 12.6545 38.0886 0.5649 -7.4783 -13.5955 2.6022 -10.0214 -29.0461 0.0000 0.0000 0.0000 11.6862 8.7246 -27.7915 -5.1202 -13.5179 41.3393 -1.0278 6.0353 -18.0970 -0.0002 0.0835 -0.2295 -9.8083 1.4828 15.2975 -3.0857 -0.4745 -3.6956 2.2342 0.3391 -12.7940 -12.5707 -2.2058 0.3516 12.1330 -3.8060 9.0833 5.6934 -1.9793 3.0694 0.0000 0.0000 0.0000 -16.2366 -42.9898 -38.6091 46.3380 -51.4074 -23.2799 -0.0000 -0.0000 19.6291 8.4927 38.5380 5.3151 -7.1250 0.0000 -0.0000 -34.4289 65.6831 -18.1399 0.0000 0.0000 0.0000 93.6458 -5.5798 43.4811 -52.8895 54.0964 -28.4985 0.0000 -0.0000 -11.2582 10.8444 56.9761 9.1246 7.1250 -0.0000 -0.0000 23.5958 23.7270 33.1624
